# xmcd
# 
# Track frame offsets:
#     150
#     17473
#     37218
#     65358
#     93760
#     106860
#     120258
#     145100
#     188040
#     208615
# 
# Disc length: 3650
# 
# Revision: 1
# Processed by: cddbd v1.5.2PL0 Copyright (c) Steve Scherf et al.
# Submitted via: fre:ac v1.0.17
# 
DISCID=7a0e400a
DTITLE=Various Artist - 超時空要塞マクロス Vol.V RHAPSODY IN LOVE マクロスの愛 Disc2
DYEAR=1983
DGENRE=anime
TTITLE0=マクロスの愛 Part Ⅰ - フォッカーと輝の再会
TTITLE1=マクロスの愛 Part Ⅰ - ミンメイと輝
TTITLE2=マクロスの愛 Part Ⅰ - 輝の統合軍入隊、昇進 －ミス・マクロスの誕生－
TTITLE3=マクロスの愛 Part Ⅰ - 早瀬中尉と輝～スパイ
TTITLE4=マクロスの愛 Part Ⅰ - マックスとミリア～輝の怪我
TTITLE5=マクロスの愛 Part Ⅱ - フォッカーの死～全機発進
TTITLE6=マクロスの愛 Part Ⅱ - 早瀬、輝～ミンメイ、カイフン～マックスの相談
TTITLE7=マクロスの愛 Part Ⅱ - エクセドル～戦いの末
TTITLE8=マクロスの愛 Part Ⅱ - マクロスの愛
TTITLE9=オリジナル初回特典フォノシート - マクロスの輪～マクロス座談会(1983.10.20 於：ビクター青山スタジオ)
EXTD=
EXTT0=
EXTT1=
EXTT2=
EXTT3=
EXTT4=
EXTT5=
EXTT6=
EXTT7=
EXTT8=
EXTT9=
PLAYORDER=
